<svg xmlns="http://www.w3.org/2000/svg" width="256" height="256" viewBox="0 0 256 256">
  <defs>
    <linearGradient id="bg" x1="0" y1="0" x2="1" y2="1">
      <stop offset="0" stop-color="#9AA0FF"/>
      <stop offset="0.55" stop-color="#7C83FD"/>
      <stop offset="1" stop-color="#4F53E3"/>
    </linearGradient>
    <linearGradient id="page" x1="0" y1="0" x2="0" y2="1">
      <stop offset="0" stop-color="#FFFFFF"/>
      <stop offset="1" stop-color="#E9EAFF"/>
    </linearGradient>
  </defs>
  <rect x="8" y="8" width="240" height="240" rx="60" fill="url(#bg)"/>
  <!-- archive layers -->
  <rect x="58" y="70" width="140" height="22" rx="11" fill="#FFFFFF" fill-opacity="0.28"/>
  <rect x="50" y="100" width="156" height="22" rx="11" fill="#FFFFFF" fill-opacity="0.42"/>
  <!-- bookmark -->
  <path d="M86 124 Q86 112 98 112 L158 112 Q170 112 170 124 L170 206 Q170 213 164 209 L128 184 L92 209 Q86 213 86 206 Z" fill="url(#page)"/>
  <rect x="104" y="134" width="48" height="9" rx="4.5" fill="#7C83FD"/>
  <rect x="104" y="152" width="32" height="9" rx="4.5" fill="#7C83FD" fill-opacity="0.55"/>
  <circle cx="190" cy="66" r="13" fill="#36C2B4"/>
  <circle cx="190" cy="66" r="13" fill="none" stroke="#FFFFFF" stroke-opacity="0.6" stroke-width="3"/>
</svg>
